<svg xmlns="http://www.w3.org/2000/svg" xmlns:xlink="http://www.w3.org/1999/xlink" width="19.166" height="23" viewBox="0 0 19.166 23">
  <defs>
    <clipPath id="clip-path">
      <rect width="19.167" height="23" fill="none"/>
    </clipPath>
  </defs>
  <g id="bell_1_" data-name="bell (1)" transform="translate(0 0)" clip-path="url(#clip-path)">
    <path id="Path_6" data-name="Path 6" d="M136.926,420.313a3.6,3.6,0,0,1-3.594-3.594.719.719,0,0,1,1.438,0,2.156,2.156,0,0,0,4.313,0,.719.719,0,0,1,1.438,0A3.6,3.6,0,0,1,136.926,420.313Zm0,0" transform="translate(-127.343 -397.313)" fill="#fff"/>
    <path id="Path_7" data-name="Path 7" d="M17.49,81.25H1.677A1.677,1.677,0,0,1,.586,78.3,6.422,6.422,0,0,0,2.875,73.38V70.708a6.708,6.708,0,0,1,13.417,0V73.38a6.421,6.421,0,0,0,2.279,4.911A1.676,1.676,0,0,1,17.49,81.25ZM9.583,65.438a5.276,5.276,0,0,0-5.271,5.271V73.38a7.854,7.854,0,0,1-2.789,6.009.239.239,0,0,0-.086.184.242.242,0,0,0,.24.24H17.49a.242.242,0,0,0,.24-.24.237.237,0,0,0-.084-.182,7.857,7.857,0,0,1-2.791-6.011V70.708A5.276,5.276,0,0,0,9.583,65.438Zm0,0" transform="translate(0 -61.125)" fill="#fff"/>
    <path id="Path_8" data-name="Path 8" d="M198.051,4.313a.719.719,0,0,1-.719-.719V.719a.719.719,0,0,1,1.438,0V3.594A.719.719,0,0,1,198.051,4.313Zm0,0" transform="translate(-188.468)" fill="#fff"/>
  </g>
</svg>
