<svg xmlns="http://www.w3.org/2000/svg" xmlns:xlink="http://www.w3.org/1999/xlink" width="21.667" height="26" viewBox="0 0 21.667 26">
  <defs>
    <clipPath id="clip-path">
      <rect width="21.667" height="26" fill="none"/>
    </clipPath>
  </defs>
  <g id="bell_1_" data-name="bell (1)" transform="translate(0)" clip-path="url(#clip-path)">
    <path id="Path_6" data-name="Path 6" d="M137.395,420.875a4.067,4.067,0,0,1-4.062-4.062.812.812,0,1,1,1.625,0,2.437,2.437,0,0,0,4.875,0,.812.812,0,1,1,1.625,0A4.067,4.067,0,0,1,137.395,420.875Zm0,0" transform="translate(-126.561 -394.875)" fill="#c3c3c3"/>
    <path id="Path_7" data-name="Path 7" d="M19.771,83.5H1.9A1.9,1.9,0,0,1,.663,80.163,7.26,7.26,0,0,0,3.25,74.6v-3.02a7.583,7.583,0,0,1,15.167,0V74.6a7.259,7.259,0,0,0,2.576,5.552A1.9,1.9,0,0,1,19.771,83.5ZM10.833,65.625a5.965,5.965,0,0,0-5.958,5.958V74.6A8.879,8.879,0,0,1,1.723,81.4a.27.27,0,0,0-.1.208.274.274,0,0,0,.271.271H19.771a.274.274,0,0,0,.271-.271.268.268,0,0,0-.1-.206A8.881,8.881,0,0,1,16.792,74.6v-3.02A5.965,5.965,0,0,0,10.833,65.625Zm0,0" transform="translate(0 -60.75)" fill="#c3c3c3"/>
    <path id="Path_8" data-name="Path 8" d="M198.145,4.875a.813.813,0,0,1-.812-.813V.813a.813.813,0,0,1,1.625,0v3.25A.813.813,0,0,1,198.145,4.875Zm0,0" transform="translate(-187.311)" fill="#c3c3c3"/>
  </g>
</svg>
