<svg xmlns="http://www.w3.org/2000/svg" xmlns:xlink="http://www.w3.org/1999/xlink" width="44" height="44" viewBox="0 0 44 44"><defs><clipPath id="a"><rect width="44" height="44" fill="none"/></clipPath><clipPath id="b"><rect width="14" height="14" fill="none"/></clipPath></defs><g clip-path="url(#a)"><g transform="translate(1 1)" fill="#fff" stroke="#c3c3c3" stroke-width="1"><rect width="42" height="42" rx="3" stroke="none"/><rect x="-0.5" y="-0.5" width="43" height="43" rx="3.5" fill="none"/></g><g transform="translate(21.899 12) rotate(45)" clip-path="url(#b)"><g transform="translate(14) rotate(90)"><path d="M.72,14a.721.721,0,0,1-.509-1.23L12.77.211A.72.72,0,1,1,13.789,1.23L1.23,13.789A.722.722,0,0,1,.72,14Zm0,0" fill="#6f7780"/><path d="M13.28,14a.715.715,0,0,1-.509-.211L.211,1.23A.72.72,0,0,1,1.23.211L13.789,12.77A.721.721,0,0,1,13.28,14Zm0,0" fill="#6f7780"/></g></g></g></svg>