<svg xmlns="http://www.w3.org/2000/svg" width="18.286" height="16" viewBox="0 0 18.286 16">
  <path id="camera-solid_1_" data-name="camera-solid (1)" d="M18.286,36V46.286A1.715,1.715,0,0,1,16.571,48H1.714A1.715,1.715,0,0,1,0,46.286V36a1.715,1.715,0,0,1,1.714-1.714H4.857L5.3,33.111A1.712,1.712,0,0,1,6.9,32h4.482a1.712,1.712,0,0,1,1.6,1.111l.443,1.175h3.143A1.715,1.715,0,0,1,18.286,36Zm-4.857,5.143a4.286,4.286,0,1,0-4.286,4.286A4.289,4.289,0,0,0,13.429,41.143Zm-1.143,0A3.143,3.143,0,1,1,9.143,38,3.147,3.147,0,0,1,12.286,41.143Z" transform="translate(0 -32)" fill="#6f7780"/>
</svg>
