<svg xmlns="http://www.w3.org/2000/svg" width="37" height="37" viewBox="0 0 37 37">
  <g id="Group_1028" data-name="Group 1028" transform="translate(-274 -702)">
    <g id="Ellipse_151" data-name="Ellipse 151" transform="translate(275 703)" fill="none" stroke="#dbdede" stroke-width="1">
      <circle cx="17.5" cy="17.5" r="17.5" stroke="none"/>
      <circle cx="17.5" cy="17.5" r="18" fill="none"/>
    </g>
    <g id="logout" transform="translate(285 653.051)">
      <g id="Group_752" data-name="Group 752" transform="translate(0 58.95)">
        <path id="Path_35" data-name="Path 35" d="M0,61.809V73.235a2.865,2.865,0,0,0,2.859,2.859H9.522a2.865,2.865,0,0,0,2.859-2.859V71.384a.566.566,0,1,0-1.132,0v1.851a1.735,1.735,0,0,1-1.731,1.731H2.859a1.735,1.735,0,0,1-1.731-1.731V61.809a1.735,1.735,0,0,1,1.731-1.731H9.522a1.735,1.735,0,0,1,1.731,1.731V63.66a.566.566,0,0,0,1.132,0V61.809A2.865,2.865,0,0,0,9.527,58.95H2.859A2.862,2.862,0,0,0,0,61.809Z" transform="translate(0 -58.95)" fill="#6f7780" stroke="#6f7780" stroke-width="0.3"/>
        <path id="Path_36" data-name="Path 36" d="M214.545,157.637a.567.567,0,0,0,.8,0l3.862-3.862a.561.561,0,0,0,0-.8l-3.862-3.862a.563.563,0,0,0-.8.8l2.9,2.9H206.866a.566.566,0,1,0,0,1.132h10.579l-2.9,2.9A.556.556,0,0,0,214.545,157.637Z" transform="translate(-199.374 -144.807)" fill="#6f7780" stroke="#6f7780" stroke-width="0.3"/>
      </g>
    </g>
  </g>
</svg>
