<svg xmlns="http://www.w3.org/2000/svg" width="37" height="37" viewBox="0 0 37 37">
  <g id="Group_1019" data-name="Group 1019" transform="translate(-314 -261)">
    <g id="Ellipse_99" data-name="Ellipse 99" transform="translate(315 262)" fill="none" stroke="#dbdede" stroke-width="1">
      <circle cx="17.5" cy="17.5" r="17.5" stroke="none"/>
      <circle cx="17.5" cy="17.5" r="18" fill="none"/>
    </g>
    <g id="cursor" transform="translate(321 269.998)">
      <g id="Group_740" data-name="Group 740" transform="translate(0 0.002)">
        <path id="Path_32" data-name="Path 32" d="M19.681.327l0,0,0,0A1.078,1.078,0,0,0,18.508.079L.695,7.044a1.092,1.092,0,0,0,.252,2.1l8.706,1.174a.037.037,0,0,1,.032.032l1.174,8.706a1.079,1.079,0,0,0,.952.938,1.142,1.142,0,0,0,.136.008,1.077,1.077,0,0,0,1.011-.695L19.923,1.493A1.078,1.078,0,0,0,19.681.327ZM1.088,8.1c-.02,0-.028,0-.032-.032s0-.032.023-.039L17.745,1.51l-7.8,7.8C9.9,9.291,1.088,8.1,1.088,8.1ZM11.975,18.923c-.007.018-.01.027-.039.023s-.029-.012-.032-.032c0,0-1.193-8.812-1.208-8.863l7.8-7.8Z" transform="translate(0 -0.002)" fill="#6f7780" stroke="#6f7780" stroke-width="0.3"/>
      </g>
    </g>
  </g>
</svg>
