<svg xmlns="http://www.w3.org/2000/svg" xmlns:xlink="http://www.w3.org/1999/xlink" width="21.951" height="23" viewBox="0 0 21.951 23">
  <defs>
    <clipPath id="clip-path">
      <rect width="21.951" height="23" fill="none"/>
    </clipPath>
  </defs>
  <g id="cogwheel" transform="translate(0 0)" clip-path="url(#clip-path)">
    <path id="Path_9" data-name="Path 9" d="M142.44,158.915a4.792,4.792,0,1,1,4.792-4.792A4.8,4.8,0,0,1,142.44,158.915Zm0-8.146a3.354,3.354,0,1,0,3.354,3.354A3.358,3.358,0,0,0,142.44,150.77Zm0,0" transform="translate(-131.465 -142.624)" fill="#fff"/>
    <path id="Path_10" data-name="Path 10" d="M12.569,23H9.381A1.662,1.662,0,0,1,7.77,21.705l-.4-1.794a8.809,8.809,0,0,1-1.873-1.088l-1.747.552a1.661,1.661,0,0,1-1.94-.756L.219,15.872a1.675,1.675,0,0,1,.308-2.045L1.88,12.582A9.7,9.7,0,0,1,1.819,11.5a9.908,9.908,0,0,1,.06-1.082L.533,9.179A1.673,1.673,0,0,1,.214,7.137l1.6-2.765a1.661,1.661,0,0,1,1.932-.749l1.75.553A8.818,8.818,0,0,1,7.367,3.088l.4-1.8A1.661,1.661,0,0,1,9.381,0h3.188a1.662,1.662,0,0,1,1.611,1.295l.4,1.794a8.809,8.809,0,0,1,1.873,1.088L18.2,3.624a1.662,1.662,0,0,1,1.94.756l1.589,2.747a1.675,1.675,0,0,1-.308,2.045l-1.354,1.245a9.727,9.727,0,0,1,0,2.164l1.347,1.238.007.006a1.671,1.671,0,0,1,.313,2.036l-1.6,2.765a1.657,1.657,0,0,1-1.933.748l-1.75-.553a8.821,8.821,0,0,1-1.873,1.088l-.4,1.8A1.658,1.658,0,0,1,12.569,23ZM5.641,17.307a.719.719,0,0,1,.457.164A7.382,7.382,0,0,0,8.234,18.71a.718.718,0,0,1,.452.516l.488,2.166a.215.215,0,0,0,.208.171h3.187a.214.214,0,0,0,.207-.169l.489-2.168a.718.718,0,0,1,.452-.516,7.4,7.4,0,0,0,2.136-1.239.716.716,0,0,1,.674-.131l2.109.666a.215.215,0,0,0,.254-.088l1.6-2.765a.234.234,0,0,0-.046-.277l-1.618-1.487a.718.718,0,0,1-.224-.635,8.323,8.323,0,0,0,0-2.507.719.719,0,0,1,.224-.635l1.621-1.491a.234.234,0,0,0,.037-.282L18.9,5.09a.22.22,0,0,0-.261-.1l-2.106.665a.717.717,0,0,1-.674-.131,7.383,7.383,0,0,0-2.136-1.239.718.718,0,0,1-.452-.516l-.488-2.166a.22.22,0,0,0-.21-.169H9.381a.214.214,0,0,0-.207.169L8.685,3.774a.72.72,0,0,1-.452.516A7.375,7.375,0,0,0,6.1,5.53a.721.721,0,0,1-.674.131L3.315,4.995a.217.217,0,0,0-.254.088l-1.6,2.764a.235.235,0,0,0,.049.28L3.127,9.611a.719.719,0,0,1,.224.635,8.322,8.322,0,0,0,0,2.507.72.72,0,0,1-.224.635L1.505,14.88a.234.234,0,0,0-.037.282l1.589,2.747a.22.22,0,0,0,.261.1l2.107-.665A.7.7,0,0,1,5.641,17.307Zm0,0" transform="translate(0)" fill="#fff"/>
  </g>
</svg>
