<svg xmlns="http://www.w3.org/2000/svg" width="14" height="18.667" viewBox="0 0 14 18.667">
  <path id="file-download-solid" d="M8.167,4.958V0H.875A.873.873,0,0,0,0,.875V17.792a.873.873,0,0,0,.875.875h12.25A.873.873,0,0,0,14,17.792V5.833H9.042A.878.878,0,0,1,8.167,4.958Zm2.787,7.706L7.439,16.153a.622.622,0,0,1-.876,0L3.047,12.664a.583.583,0,0,1,.41-1H5.833V8.75a.583.583,0,0,1,.583-.583H7.583a.583.583,0,0,1,.583.583v2.917h2.376a.583.583,0,0,1,.411,1Zm2.791-8.836L10.176.255A.874.874,0,0,0,9.556,0H9.333V4.667H14V4.444A.872.872,0,0,0,13.745,3.828Z" fill="#6f7780"/>
</svg>
