<svg xmlns="http://www.w3.org/2000/svg" xmlns:xlink="http://www.w3.org/1999/xlink" width="14" height="14" viewBox="0 0 14 14">
  <defs>
    <clipPath id="clip-path">
      <rect width="14" height="14" fill="none"/>
    </clipPath>
  </defs>
  <g id="close" clip-path="url(#clip-path)">
    <g id="close-2" data-name="close" transform="translate(14) rotate(90)">
      <path id="Path_15" data-name="Path 15" d="M.72,14a.721.721,0,0,1-.509-1.23L12.77.211A.72.72,0,1,1,13.789,1.23L1.23,13.789A.722.722,0,0,1,.72,14Zm0,0" fill="#c3c3c3"/>
      <path id="Path_16" data-name="Path 16" d="M13.28,14a.715.715,0,0,1-.509-.211L.211,1.23A.72.72,0,0,1,1.23.211L13.789,12.77A.721.721,0,0,1,13.28,14Zm0,0" fill="#c3c3c3"/>
    </g>
  </g>
</svg>
