<svg xmlns="http://www.w3.org/2000/svg" width="37" height="37" viewBox="0 0 37 37"><g transform="translate(-1032 -363)"><g transform="translate(19875 10720)"><g transform="translate(-18842 -10356)" fill="#fff" stroke="#dbdede" stroke-width="1"><circle cx="17.5" cy="17.5" r="17.5" stroke="none"/><circle cx="17.5" cy="17.5" r="18" fill="none"/></g><g transform="translate(-18832 -10405.949)"><g transform="translate(0 58.95)"><path d="M0,61.809V73.235a2.865,2.865,0,0,0,2.859,2.859H9.522a2.865,2.865,0,0,0,2.859-2.859V71.384a.566.566,0,1,0-1.132,0v1.851a1.735,1.735,0,0,1-1.731,1.731H2.859a1.735,1.735,0,0,1-1.731-1.731V61.809a1.735,1.735,0,0,1,1.731-1.731H9.522a1.735,1.735,0,0,1,1.731,1.731V63.66a.566.566,0,0,0,1.132,0V61.809A2.865,2.865,0,0,0,9.527,58.95H2.859A2.862,2.862,0,0,0,0,61.809Z" transform="translate(0 -58.95)" fill="#c3c3c3" stroke="#c3c3c3" stroke-width="0.3"/><path d="M214.545,157.637a.567.567,0,0,0,.8,0l3.862-3.862a.561.561,0,0,0,0-.8l-3.862-3.862a.563.563,0,0,0-.8.8l2.9,2.9H206.866a.566.566,0,1,0,0,1.132h10.579l-2.9,2.9A.556.556,0,0,0,214.545,157.637Z" transform="translate(-199.374 -144.807)" fill="#c3c3c3" stroke="#c3c3c3" stroke-width="0.3"/></g></g></g></g></svg>