<svg xmlns="http://www.w3.org/2000/svg" width="17.307" height="21.302" viewBox="0 0 17.307 21.302">
  <g id="shield_1_" data-name="shield (1)" transform="translate(-48.52 0.152)">
    <g id="Group_742" data-name="Group 742" transform="translate(48.67 0)">
      <g id="Group_741" data-name="Group 741" transform="translate(0 0)">
        <path id="Path_33" data-name="Path 33" d="M64.82,2.134,57.985.118a2.862,2.862,0,0,0-1.623,0L49.527,2.134A1.2,1.2,0,0,0,48.67,3.28V8.941a12.923,12.923,0,0,0,8.052,11.971,1.192,1.192,0,0,0,.9,0A12.923,12.923,0,0,0,65.677,8.941V3.28A1.2,1.2,0,0,0,64.82,2.134Zm-.1,6.807a11.967,11.967,0,0,1-7.456,11.085.241.241,0,0,1-.183,0A11.967,11.967,0,0,1,49.626,8.94V3.28a.24.24,0,0,1,.171-.229l6.835-2.016a1.908,1.908,0,0,1,1.082,0L64.55,3.051a.24.24,0,0,1,.171.229Z" transform="translate(-48.67 0)" fill="#6f7780" stroke="#6f7780" stroke-width="0.3"/>
      </g>
    </g>
    <g id="Group_744" data-name="Group 744" transform="translate(51.362 2.716)">
      <g id="Group_743" data-name="Group 743" transform="translate(0)">
        <path id="Path_34" data-name="Path 34" d="M125.422,67.741l-5.094-1.5a.715.715,0,0,0-.406,0l-5.094,1.5a.721.721,0,0,0-.514.688v4.005a10.16,10.16,0,0,0,1.851,5.87,10.292,10.292,0,0,0,3.628,3.192.716.716,0,0,0,.664,0,10.293,10.293,0,0,0,3.628-3.192,10.159,10.159,0,0,0,1.851-5.87V68.429A.721.721,0,0,0,125.422,67.741Zm-.442,4.693a9.208,9.208,0,0,1-1.677,5.321,9.338,9.338,0,0,1-3.178,2.835,9.338,9.338,0,0,1-3.178-2.835,9.208,9.208,0,0,1-1.677-5.321V68.608l4.855-1.432,4.855,1.432Z" transform="translate(-114.314 -66.21)" fill="#6f7780" stroke="#6f7780" stroke-width="0.3"/>
      </g>
    </g>
  </g>
</svg>
