<svg xmlns="http://www.w3.org/2000/svg" xmlns:xlink="http://www.w3.org/1999/xlink" width="18.857" height="22" viewBox="0 0 18.857 22">
  <defs>
    <clipPath id="clip-path">
      <rect width="18.857" height="22" fill="none"/>
    </clipPath>
  </defs>
  <g id="user_5_" data-name="user (5)" transform="translate(0 0)" clip-path="url(#clip-path)">
    <path id="Path_11" data-name="Path 11" d="M90.57,10.484a5.238,5.238,0,1,1,5.238-5.238A5.244,5.244,0,0,1,90.57,10.484Zm0-8.9a3.667,3.667,0,1,0,3.667,3.667A3.671,3.671,0,0,0,90.57,1.579Zm0,0" transform="translate(-81.142 -0.008)" fill="#fff"/>
    <path id="Path_12" data-name="Path 12" d="M18.071,265.436H.786A.786.786,0,0,1,0,264.651v-3.667a4.982,4.982,0,0,1,4.976-4.976h8.9a4.982,4.982,0,0,1,4.976,4.976v3.667A.786.786,0,0,1,18.071,265.436Zm-16.5-1.571H17.286v-2.881a3.409,3.409,0,0,0-3.4-3.4h-8.9a3.409,3.409,0,0,0-3.4,3.4Zm0,0" transform="translate(0 -243.436)" fill="#fff"/>
  </g>
</svg>
