<svg xmlns="http://www.w3.org/2000/svg" xmlns:xlink="http://www.w3.org/1999/xlink" width="20.571" height="24" viewBox="0 0 20.571 24">
  <defs>
    <clipPath id="clip-path">
      <rect width="20.571" height="24" fill="none"/>
    </clipPath>
  </defs>
  <g id="user_5_" data-name="user (5)" transform="translate(0)" clip-path="url(#clip-path)">
    <path id="Path_11" data-name="Path 11" d="M91.046,11.436a5.714,5.714,0,1,1,5.714-5.714A5.721,5.721,0,0,1,91.046,11.436Zm0-9.714a4,4,0,1,0,4,4A4,4,0,0,0,91.046,1.722Zm0,0" transform="translate(-80.761 -0.008)" fill="#c3c3c3"/>
    <path id="Path_12" data-name="Path 12" d="M19.714,266.294H.857A.857.857,0,0,1,0,265.436v-4a5.435,5.435,0,0,1,5.429-5.428h9.714a5.435,5.435,0,0,1,5.429,5.428v4A.857.857,0,0,1,19.714,266.294Zm-18-1.714H18.857v-3.143a3.719,3.719,0,0,0-3.714-3.714H5.429a3.719,3.719,0,0,0-3.714,3.714Zm0,0" transform="translate(0 -242.294)" fill="#c3c3c3"/>
  </g>
</svg>
