<svg height="502pt" viewBox="0 0 502 502.49289" width="502pt" xmlns="http://www.w3.org/2000/svg"><path d="m211.863281 290.875 90.511719 203.648438 192.328125-486.488282-486.488281 192.328125zm0 0" fill="#57a4ff"/><path d="m491.765625.597656-486.496094 192.34375c-2.984375 1.195313-4.960937 4.0625-5.023437 7.277344-.058594 3.214844 1.8125 6.152344 4.75 7.457031l200.800781 89.265625 89.265625 200.800782c1.28125 2.886718 4.144531 4.746093 7.304688 4.75h.167968c3.222656-.066407 6.09375-2.0625 7.277344-5.0625l192.335938-486.457032c1.191406-2.972656.496093-6.367187-1.769532-8.628906-2.261718-2.265625-5.65625-2.960938-8.628906-1.769531zm-189.824219 473.261719-82.777344-186.230469c-.804687-1.808594-2.246093-3.25-4.054687-4.054687l-186.230469-82.777344 451.597656-178.535156zm0 0" fill="#004fac"/></svg>