<?xml version="1.0"?>
<svg xmlns="http://www.w3.org/2000/svg" height="512px" viewBox="-40 0 392 392.574" width="512px" class=""><g><path d="m156.375 74c-45.316406 0-82.050781 36.734375-82.050781 82.046875s36.734375 82.050781 82.046875 82.050781c45.316406 0 82.050781-36.734375 82.050781-82.050781-.054687-45.289063-36.757813-81.996094-82.046875-82.046875zm0 0" data-original="#000000" class="active-path" data-old_color="#000000" fill="#FFFFFF"/><path d="m284.398438 67.046875c-29.441407-42.609375-76.105469-67.046875-128.023438-67.046875-51.921875 0-98.582031 24.4375-128.027344 67.046875-29.335937 42.460937-36.136718 96.144531-18.191406 143.601563 4.542969 12.261718 11.863281 24.273437 21.785156 35.761718l124.433594 146.164063 124.382812-146.101563.046876-.050781c10.484374-12.140625 17.386718-23.449219 21.722656-35.589844.019531-.058593.042968-.117187.0625-.175781 17.949218-47.46875 11.144531-101.148438-18.191406-143.609375zm-128.023438 191.050781c-56.359375 0-102.050781-45.691406-102.050781-102.050781s45.691406-102.046875 102.050781-102.046875 102.046875 45.6875 102.046875 102.046875c-.0625 56.335937-45.714844 101.984375-102.046875 102.050781zm0 0" data-original="#000000" class="active-path" data-old_color="#000000" fill="#FFFFFF"/></g> </svg>
